<?xml version="1.0" encoding="UTF-8"?> <svg xmlns="http://www.w3.org/2000/svg" width="55" height="75" viewBox="0 0 55 75" fill="none"> <g clip-path="url(#clip0_906_2464)"> <path d="M22.5148 59.1317H2.04297V2.23047H44.167V68.9486" stroke="#008FFF" stroke-width="4.08665" stroke-miterlimit="10"></path> <path d="M34.8125 62.1005L44.1654 71.4534L53.5543 62.0645" stroke="#008FFF" stroke-width="4.08665" stroke-miterlimit="10"></path> <path d="M10.9091 35.2822H12.1856V31.8103H14.1897C16.3596 31.8103 18.3764 30.8912 18.3764 28.9127C18.3764 26.9342 16.4362 26.0662 14.279 26.0662H10.9091V35.2822ZM12.1728 27.1384L14.3045 27.1512C15.5555 27.1639 17.0362 27.5469 17.0362 28.9127C17.0362 30.2785 15.5682 30.687 14.1769 30.6997L12.1728 30.7125V27.1384ZM19.6474 35.2822H22.3918C25.6213 35.2822 27.7912 33.342 27.7912 30.738C27.7912 27.7511 25.2638 26.0662 22.4812 26.0662H19.6474V35.2822ZM20.9239 27.1256L22.545 27.1384C24.932 27.1512 26.5148 28.6574 26.5148 30.7508C26.5148 32.9208 24.8171 34.1972 22.4301 34.2228L20.9239 34.2355V27.1256ZM29.1336 35.2822H30.3973V31.2614H35.9882V30.1891H30.3973V27.1512H36.2563V26.0662H29.1336V35.2822Z" fill="#008FFF"></path> </g> <defs> <clipPath id="clip0_906_2464"> <rect width="55" height="74.1563" fill="white" transform="translate(0 0.18457)"></rect> </clipPath> </defs> </svg> 