<svg width="22" height="68" viewBox="0 0 22 68" fill="none" xmlns="http://www.w3.org/2000/svg">
<path d="M20.3007 65.7822C21.6198 62.6667 21.4357 57.2556 16.9653 52.3957C14.1869 54.9818 14.3332 61.1445 20.3007 65.7822Z" fill="black"/>
<path d="M10.7843 13.219C13.9674 12.0984 17.3279 7.59953 17.3144 0.544414C14.5766 1.27231 9.52849 5.86256 10.7843 13.219Z" fill="black"/>
<path d="M12.0463 54.1255C14.7096 51.326 15.923 46.6635 13.8863 41.0422C10.5064 42.3759 8.15876 47.7257 12.0463 54.1255Z" fill="black"/>
<path d="M7.95619 41.8815C10.3221 40.6567 13.568 37.136 13.1171 30.756C10.2381 31.098 6.39797 34.8377 7.95619 41.8815Z" fill="black"/>
<path d="M7.76783 30.8727C10.964 29.989 13.9675 26.7781 14.3363 21.1507C11.3096 21.0739 7.49967 24.4724 7.76783 30.8727Z" fill="black"/>
<path d="M9.15275 20.4752C11.7877 20.1979 15.1009 17.9334 16.0727 12.6537C14.0866 12.3809 9.99719 14.0138 9.15275 20.4752Z" fill="black"/>
<path d="M19.3872 66.7074C15.3559 68.5493 8.91693 66.0431 6.3165 58.2405C11.1644 57.4419 16.3588 62.7996 19.3872 66.7074Z" fill="black"/>
<path d="M11.2706 54.4914C6.71065 55.3016 1.30131 50.706 1.0344 43.1041C5.77488 43.6071 9.34476 50.0852 11.2706 54.4914Z" fill="black"/>
<path d="M6.86399 42.0934C6.86399 42.0934 6.41795 42.0227 5.74342 41.7438C1.49626 40.0145 -0.14923 34.9149 0.98109 29.6901C5.11118 31.2494 6.46704 37.632 6.86399 42.0934Z" fill="black"/>
<path d="M6.74688 30.5392C3.25216 29.3522 0.62603 24.5671 2.65883 18.246C6.41497 20.0878 7.04411 26.1852 6.74688 30.5392Z" fill="black"/>
<path d="M8.0742 20.0856C5.99901 18.7754 3.65016 14.558 6.79061 8.89795C9.80243 11.1484 9.25288 16.3441 8.0742 20.0856Z" fill="black"/>
</svg>
