<svg width="22" height="68" viewBox="0 0 22 68" fill="none" xmlns="http://www.w3.org/2000/svg">
<path d="M1.3113 65.8205C0.0303764 62.6891 0.280726 57.2807 4.8103 52.4758C7.55681 55.0958 7.3351 61.2562 1.3113 65.8205Z" fill="black"/>
<path d="M11.4703 13.3778C8.30118 12.2182 4.99598 7.67859 5.09582 0.624166C7.82447 1.38551 12.8161 6.0372 11.4703 13.3778Z" fill="black"/>
<path d="M9.70772 54.2657C7.07888 51.4338 5.92265 46.7568 8.02802 41.1609C11.3914 42.5359 13.6733 47.9139 9.70772 54.2657Z" fill="black"/>
<path d="M13.9474 42.0726C11.5966 40.8191 8.39406 37.2589 8.92304 30.8849C11.7976 31.2621 15.5917 35.0485 13.9474 42.0726Z" fill="black"/>
<path d="M14.2705 31.067C11.0853 30.1443 8.12143 26.8968 7.82154 21.2654C10.8489 21.2256 14.617 24.6705 14.2705 31.067Z" fill="black"/>
<path d="M13.0129 20.6534C10.3815 20.3438 7.09636 18.0389 6.18918 12.7477C8.17852 12.4993 12.2476 14.1821 13.0129 20.6534Z" fill="black"/>
<path d="M2.21338 66.7568C6.22189 68.6479 12.691 66.2208 15.3867 58.4506C10.549 57.5927 5.28938 62.8863 2.21338 66.7568Z" fill="black"/>
<path d="M10.4789 54.6411C15.0286 55.507 20.4938 50.978 20.8537 43.3799C16.1074 43.8249 12.4585 50.2587 10.4789 54.6411Z" fill="black"/>
<path d="M15.0369 42.2979C15.0369 42.2979 15.4838 42.2327 16.1617 41.9621C20.4297 40.2849 22.1375 35.2058 21.0712 29.9675C16.9223 31.4763 15.4885 37.8417 15.0369 42.2979Z" fill="black"/>
<path d="M15.2954 30.7461C18.8044 29.6019 21.4889 24.8493 19.5336 18.5038C15.7552 20.2995 15.0515 26.3887 15.2954 30.7461Z" fill="black"/>
<path d="M14.0962 20.277C16.1872 18.9923 18.5875 14.8039 15.5166 9.10588C12.4775 11.3193 12.9634 16.5213 14.0962 20.277Z" fill="black"/>
</svg>
